<svg xmlns="http://www.w3.org/2000/svg" width="30" height="30" viewBox="0 0 30 30">
  <defs>
    <style>
      .cls-1 {
        fill: #b2b2b2;
        fill-rule: evenodd;
      }
    </style>
  </defs>
  <path id="dribbble" class="cls-1" d="M856.125,6139.37a15,15,0,1,0,15,15A15,15,0,0,0,856.125,6139.37Zm0,27.66a12.655,12.655,0,1,1,12.656-12.66A12.659,12.659,0,0,1,856.125,6167.03Zm0-20.16a7.5,7.5,0,1,0,7.5,7.5A7.508,7.508,0,0,0,856.125,6146.87Zm4.6,3.89a5.813,5.813,0,0,1,1.248,3.34,11.552,11.552,0,0,0-2.392-.27H859.57a10.093,10.093,0,0,0-1.7.15c-0.13-.32-0.26-0.62-0.391-0.91A9.118,9.118,0,0,0,860.72,6150.76Zm-4.6-2.24a5.834,5.834,0,0,1,3.649,1.29,7.572,7.572,0,0,1-2.874,2.05,20.928,20.928,0,0,0-2.019-3.2A6.354,6.354,0,0,1,856.125,6148.52Zm-2.585.61a18,18,0,0,1,2.088,3.19,17.077,17.077,0,0,1-4.621.64h-0.559A5.9,5.9,0,0,1,853.54,6149.13Zm-3.266,5.24c0-.02,0-0.05,0-0.08,0.166,0.01.38,0.01,0.639,0.01h0a18.358,18.358,0,0,0,5.311-.76c0.114,0.25.226,0.51,0.337,0.77a9.317,9.317,0,0,0-3.294,1.95,9.946,9.946,0,0,0-1.613,1.88A5.812,5.812,0,0,1,850.274,6154.37Zm5.851,5.86a5.77,5.77,0,0,1-3.477-1.16,8.656,8.656,0,0,1,1.358-1.67,8.069,8.069,0,0,1,3.041-1.84,29.156,29.156,0,0,1,1.155,4.28A5.747,5.747,0,0,1,856.125,6160.23Zm3.311-1.04a29.778,29.778,0,0,0-1.079-3.93,7.682,7.682,0,0,1,1.2-.09h0.017a10.358,10.358,0,0,1,2.3.28A5.859,5.859,0,0,1,859.436,6159.19Z" transform="translate(-841.125 -6139.38)"/>
</svg>
