<svg xmlns="http://www.w3.org/2000/svg" width="31" height="31" viewBox="0 0 31 31">
  <defs>
    <style>
      .cls-1 {
        fill: #b2b2b2;
        fill-rule: evenodd;
      }
    </style>
  </defs>
  <path id="facebook" class="cls-1" d="M676.5,6139a15.5,15.5,0,1,0,15.5,15.5A15.5,15.5,0,0,0,676.5,6139Zm0,28.58a13.08,13.08,0,1,1,13.078-13.08A13.081,13.081,0,0,1,676.5,6167.58Zm3.678-15.45h-2.7v-1.97a0.828,0.828,0,0,1,.916-0.74h1.741v-2.66l-2-.01A3.058,3.058,0,0,0,674.8,6150v2.13h-1.976v2.73H674.8v7.39h2.684v-7.39h2.28Z" transform="translate(-661 -6139)"/>
</svg>
