<svg xmlns="http://www.w3.org/2000/svg" width="30.844" height="30.84" viewBox="0 0 30.844 30.84">
  <defs>
    <style>
      .cls-1 {
        fill: #b2b2b2;
        fill-rule: evenodd;
      }
    </style>
  </defs>
  <path id="google" class="cls-1" d="M766.416,6138.67a15.415,15.415,0,1,0,15.417,15.41A15.413,15.413,0,0,0,766.416,6138.67Zm0,28.42a13.005,13.005,0,1,1,13.008-13.01A13.005,13.005,0,0,1,766.416,6167.09Zm1.329-20.24a5.415,5.415,0,0,0,.755-0.48h-5.016c-1,0-3.8,1.14-3.8,3.8s2.894,3.24,3.944,3.2a1.215,1.215,0,0,0,.232,1.71c0.314,0.34.25,0.44-.126,0.44s-5.036.05-5.036,3.39,6.189,3.57,8.223,1.78a3.357,3.357,0,0,0,.021-5.4c-1.573-1.12-2.16-1.65-1.153-2.54s1.8-1.6,1.8-3.25a3.119,3.119,0,0,0-1.364-2.5A2.938,2.938,0,0,0,767.745,6146.85Zm-0.777,11.89c0,1.44-1.221,2.14-3.295,2.14s-3.188-1.04-3.188-2.58,1.511-2.31,4.343-2.31C765.6,6156.58,766.968,6157.3,766.968,6158.74Zm-3-6.03c-2.5,0-3.63-5.83-.692-5.83C765.562,6146.79,767.282,6152.71,763.968,6152.71Zm8.275-4.41v-1.89h-0.981v1.89h-1.919v0.99h1.919v1.9h0.981v-1.9h1.887v-0.99h-1.887Z" transform="translate(-751 -6138.66)"/>
</svg>
