<svg xmlns="http://www.w3.org/2000/svg" width="30.5" height="30.5" viewBox="0 0 30.5 30.5">
  <defs>
    <style>
      .cls-1 {
        fill: #b2b2b2;
        fill-rule: evenodd;
      }
    </style>
  </defs>
  <path id="linkedin" class="cls-1" d="M811.25,6139a15.25,15.25,0,1,0,15.25,15.25A15.251,15.251,0,0,0,811.25,6139Zm0,28.12a12.87,12.87,0,1,1,12.867-12.87A12.867,12.867,0,0,1,811.25,6167.12Zm-7.619-5.25h2.859v-11.44h-2.859v11.44Zm11.437-11.44a5.241,5.241,0,0,0-3.812,1.91v-1.91H808.4v11.44h2.86v-6.67a2.427,2.427,0,0,1,2.859-1.91c1.212,0.08,1.865,1.68,1.906,1.91v6.67l2.848,0.01v-7.92A3.567,3.567,0,0,0,815.068,6150.43Zm-10.008-3.81a1.43,1.43,0,1,0,1.43,1.43A1.429,1.429,0,0,0,805.06,6146.62Z" transform="translate(-796 -6139)"/>
</svg>
