<svg xmlns="http://www.w3.org/2000/svg" width="56.406" height="45.84" viewBox="0 0 56.406 45.84">
  <defs>
    <style>
      .cls-1 {
        fill-rule: evenodd;
      }
    </style>
  </defs>
  <path id="Forma_1" data-name="Forma 1" class="cls-1" d="M884.966,2580.95a11.46,11.46,0,1,0,11.459-11.47A11.457,11.457,0,0,0,884.966,2580.95Zm36.141-19.4H908.766c-0.881-3.52-1.763-7.05-5.289-7.05h-14.1c-3.526,0-4.407,3.53-5.289,7.05H871.743a3.54,3.54,0,0,0-3.526,3.53v31.73a3.54,3.54,0,0,0,3.526,3.53h49.364a3.539,3.539,0,0,0,3.526-3.53v-31.73A3.539,3.539,0,0,0,921.107,2561.55Zm-24.682,35.04a15.645,15.645,0,1,1,15.647-15.64A15.642,15.642,0,0,1,896.425,2596.59Zm24.682-24.46h-7.052v-3.53h7.052v3.53Z" transform="translate(-868.219 -2554.5)"/>
</svg>
