<svg xmlns="http://www.w3.org/2000/svg" width="33.688" height="54.25" viewBox="0 0 33.688 54.25">
  <defs>
    <style>
      .cls-1 {
        fill-rule: evenodd;
      }
    </style>
  </defs>
  <path id="Forma_1" data-name="Forma 1" class="cls-1" d="M608.872,2555.96a1.076,1.076,0,0,0-1.084-1.07H601.9a1.076,1.076,0,0,0-1.084,1.07v0.03a1.076,1.076,0,0,0,1.084,1.07h5.886a1.076,1.076,0,0,0,1.084-1.07v-0.03Zm8.42-3.96H592.4a4.367,4.367,0,0,0-4.394,4.34v45.57a4.373,4.373,0,0,0,4.394,4.34h24.895a4.373,4.373,0,0,0,4.394-4.34v-45.57A4.366,4.366,0,0,0,617.292,2552Zm-12.447,52.62a2.35,2.35,0,1,1,2.38-2.35A2.366,2.366,0,0,1,604.845,2604.62Zm13.179-7.05a0.725,0.725,0,0,1-.732.72H592.4a0.725,0.725,0,0,1-.732-0.72v-36.89a0.734,0.734,0,0,1,.732-0.73h24.895a0.734,0.734,0,0,1,.732.73v36.89Zm-15.559-7.96a0.907,0.907,0,0,0-.769,1.4l-1.5,1.91a0.918,0.918,0,0,0-.289-0.05,0.939,0.939,0,0,0-.548.18l-1.863-1.23a0.817,0.817,0,0,0,.032-0.22,0.916,0.916,0,0,0-1.831,0,0.88,0.88,0,0,0,.122.44l-1.429,1.62a0.959,0.959,0,0,0-.34-0.07,0.905,0.905,0,1,0,.916.9,0.88,0.88,0,0,0-.122-0.44l1.428-1.61a0.965,0.965,0,0,0,.341.07,0.947,0.947,0,0,0,.548-0.19l1.863,1.23a0.78,0.78,0,0,0-.032.22,0.916,0.916,0,0,0,1.831,0,0.894,0.894,0,0,0-.147-0.49l1.5-1.91a0.923,0.923,0,0,0,.289.05A0.905,0.905,0,1,0,602.465,2589.61Zm-4.21-14.83v-3.25a3.638,3.638,0,0,0-3.661,3.61h3.295A0.362,0.362,0,0,0,598.255,2574.78Zm3.612,0.97a3.625,3.625,0,0,0-2.88-4.15v3.54a0.733,0.733,0,0,1-.732.73h-3.587A3.671,3.671,0,0,0,601.867,2575.75Zm-5.077-10.73h2.2v4.34h-2.2v-4.34Zm-2.928,2.17h2.2v2.17h-2.2v-2.17Zm5.857-5.07h2.2v7.24h-2.2v-7.24Zm5.852,5.79H615.1a0.721,0.721,0,0,0,.725-0.72v-0.01a0.726,0.726,0,0,0-.725-0.72h-9.525a0.727,0.727,0,0,0-.726.72v0.01A0.721,0.721,0,0,0,605.571,2567.91Zm-7.091,20.29v-0.77a1.729,1.729,0,0,0,1.635-1.71c0-1.88-2.854-1.7-2.854-2.7a0.8,0.8,0,0,1,.905-0.71,2.2,2.2,0,0,1,1.33.52l0.474-.88a2.426,2.426,0,0,0-1.49-.61v-0.77h-0.729v0.79a1.743,1.743,0,0,0-1.592,1.68c0,1.8,2.862,1.7,2.862,2.7a0.762,0.762,0,0,1-.871.72,2.413,2.413,0,0,1-1.5-.63l-0.594.81a2.819,2.819,0,0,0,1.694.79v0.77h0.729Zm16.622-7.27h-9.526a0.721,0.721,0,0,0-.724.72v0.01a0.72,0.72,0,0,0,.724.72H615.1a0.721,0.721,0,0,0,.726-0.72v-0.01A0.721,0.721,0,0,0,615.1,2580.93Zm0-5.06h-9.526a0.719,0.719,0,0,0-.724.71v0.02a0.718,0.718,0,0,0,.724.71H615.1a0.719,0.719,0,0,0,.726-0.71v-0.02A0.719,0.719,0,0,0,615.1,2575.87Zm-9.531-11.58H615.1a0.719,0.719,0,0,0,.725-0.71v-0.02a0.718,0.718,0,0,0-.725-0.71h-9.525a0.719,0.719,0,0,0-.726.71v0.02A0.719,0.719,0,0,0,605.571,2564.29Zm9.531,28.94h-9.526a0.721,0.721,0,0,0-.724.72v0.01a0.727,0.727,0,0,0,.724.72H615.1a0.721,0.721,0,0,0,.726-0.72v-0.01A0.721,0.721,0,0,0,615.1,2593.23Zm0-3.62h-9.526a0.721,0.721,0,0,0-.724.72v0.01a0.72,0.72,0,0,0,.724.72H615.1a0.721,0.721,0,0,0,.726-0.72v-0.01A0.721,0.721,0,0,0,615.1,2589.61Zm0-5.06h-9.526a0.719,0.719,0,0,0-.724.71v0.02a0.718,0.718,0,0,0,.724.71H615.1a0.719,0.719,0,0,0,.726-0.71v-0.02A0.719,0.719,0,0,0,615.1,2584.55Zm0-12.3h-9.526a0.721,0.721,0,0,0-.724.72v0.01a0.72,0.72,0,0,0,.724.72H615.1a0.721,0.721,0,0,0,.726-0.72v-0.01A0.721,0.721,0,0,0,615.1,2572.25Z" transform="translate(-588 -2552)"/>
</svg>
